Coordinates
version=1
nRows=9
nColumns=38
inDegrees=yes

Units are S.I. units (second, meters, Newtons, ...)
Angles are in degrees.

endheader
time	pelvis_tilt	pelvis_list	pelvis_rotation	pelvis_tx	pelvis_ty	pelvis_tz	hip_flexion_r	hip_adduction_r	hip_rotation_r	knee_angle_r	ankle_angle_r	subtalar_angle_r	mtp_angle_r	hip_flexion_l	hip_adduction_l	hip_rotation_l	knee_angle_l	ankle_angle_l	subtalar_angle_l	mtp_angle_l	lumbar_extension	lumbar_bending	lumbar_rotation	arm_flex_r	arm_add_r	arm_rot_r	elbow_flex_r	pro_sup_r	wrist_flex_r	wrist_dev_r	arm_flex_l	arm_add_l	arm_rot_l	elbow_flex_l	pro_sup_l	wrist_flex_l	wrist_dev_l
      2.27000000	     -1.49443721	      2.09482259	     -1.62577921	      0.71668893	      0.91849565	      0.24598265	     29.03240311	     -1.25809876	     -3.89228563	    -33.84442407	      4.33178396	     -5.50125161	  67718.22053552	     -1.78911670	      7.44068085	      4.77885034	    -16.94757074	     13.15344415	     -0.53099329	      4.11865212	     -5.90737024	     -1.54244075	     -3.80528988	     -4.99274448	    -18.76420507	      9.72377116	     24.75443056	     86.51662706	      0.00000000	      0.00000000	      2.64429506	    -20.29563239	     11.27839627	     41.67756580	     86.51662706	      0.00000000	      0.00000000
      2.28000000	     -1.23851294	      2.13683027	     -1.25647982	      0.73093793	      0.91816572	      0.24647961	     28.67025869	     -1.56835985	     -4.88390039	    -29.73060835	      3.49473487	     -3.85602950	  70571.58402252	     -3.55867346	      7.41817192	      5.22684001	    -16.05557460	     13.22529202	     -0.59091220	      4.20559391	     -6.15086965	     -1.58188419	     -4.28323568	     -5.31997163	    -18.62775459	      9.42734914	     24.31471533	     86.51662706	      0.00000000	      0.00000000	      2.96115921	    -20.62615564	     10.73553529	     42.89186743	     86.51662706	      0.00000000	      0.00000000
      2.29000000	     -0.93839030	      2.14844576	     -0.89957148	      0.74551307	      0.91788779	      0.24713186	     28.30575892	     -1.81654927	     -6.06310564	    -25.71464154	      2.92184994	     -1.73104239	  73510.32157096	     -5.31011394	      7.33151690	      5.62559067	    -15.26071587	     13.24357212	     -0.60848059	      4.30324831	     -6.42050864	     -1.59588585	     -4.73160538	     -5.61233970	    -18.48809524	      9.17372952	     23.85478422	     86.51662706	      0.00000000	      0.00000000	      3.24885344	    -20.92130201	     10.19102328	     44.03776229	     86.51662706	      0.00000000	      0.00000000
      2.30000000	     -0.63570769	      2.13047737	     -0.57055302	      0.76029166	      0.91713571	      0.24793284	     27.94068815	     -1.98032528	     -7.41616073	    -21.94789209	      2.67363124	      0.83106776	  76535.21672376	     -7.01110593	      7.17323030	      5.96841871	    -14.58649956	     13.21361248	     -0.56418093	      4.42279390	     -6.69389587	     -1.57722971	     -5.14413641	     -5.86563173	    -18.34758832	      8.96733433	     23.38071157	     86.51662706	      0.00000000	      0.00000000	      3.49097131	    -21.18196383	      9.63944914	     45.12082517	     86.51662706	      0.00000000	      0.00000000
      2.31000000	     -0.36256914	      2.08458080	     -0.28116075	      0.77505993	      0.91584027	      0.24886717	     27.58103369	     -2.05416043	     -8.88735315	    -18.58057878	      2.73939869	      3.70993588	  79646.88417016	     -8.62692403	      6.94565937	      6.25696986	    -14.05478863	     13.14112363	     -0.44146274	      4.58255929	     -6.94863714	     -1.52658606	     -5.51966336	     -6.07877510	    -18.20816856	      8.81088655	     22.89928349	     86.51662706	      0.00000000	      0.00000000	      3.67116177	    -21.40938101	      9.07004348	     46.14608453	     86.51662706	      0.00000000	      0.00000000
      2.32000000	     -0.11217762	      2.00783988	     -0.03158110	      0.78989642	      0.91455453	      0.24999676	     27.27216369	     -2.04967151	    -10.38097241	    -15.72705973	      3.05868333	      6.70940972	  82845.79052893	    -10.12895398	      6.66041417	      6.49810205	    -13.68746039	     13.03062442	     -0.22772272	      4.80953319	     -7.16659735	     -1.45120865	     -5.86303796	     -6.25455432	    -18.07132064	      8.70547045	     22.41719833	     86.51662706	      0.00000000	      0.00000000	      3.77508989	    -21.60333306	      8.46762157	     47.11602900	     86.51662706	      0.00000000	      0.00000000
      2.33000000	      0.12507665	      1.90739405	      0.19024109	      0.80493138	      0.91357634	      0.25133113	     27.05935491	     -1.98429167	    -11.77694204	    -13.47067089	      3.53454377	      9.57819385	  86132.28102628	    -11.49845455	      6.33725111	      6.69915990	    -13.50608389	     12.88486338	      0.08580788	      5.14005135	     -7.33443887	     -1.36275049	     -6.18374370	     -6.40002812	    -17.93838202	      8.65065078	     21.94030718	     86.51662706	      0.00000000	      0.00000000	      3.79187453	    -21.76080963	      7.81433074	     48.02868359	     86.51662706	      0.00000000	      0.00000000
      2.34000000	      0.33278866	      1.80693876	      0.40148241	      0.82010913	      0.91241646	      0.25273335	     26.94964581	     -1.87576651	    -12.95467370	    -11.86918926	      4.04840220	     12.04223951	  89506.60963791	    -12.72413653	      5.99987203	      6.86310543	    -13.52926781	     12.70442810	      0.50486184	      5.61902721	     -7.44112710	     -1.27437968	     -6.49233947	     -6.52621698	    -17.81101006	      8.64463006	     21.47303980	     86.51662706	      0.00000000	      0.00000000	      3.71517502	    -21.87544258	      7.09210083	     48.87617864	     86.51662706	      0.00000000	      0.00000000
      2.35000000	      0.49628139	      1.72637468	      0.61477412	      0.83539255	      0.91069556	      0.25408280	     26.93334627	     -1.74935167	    -13.81684923	    -10.93476927	      4.48355205	     13.84027874	  92968.97145215	    -13.79692775	      5.66939642	      6.98466373	    -13.76927221	     12.48638462	      1.03303881	      6.29717975	     -7.47474507	     -1.19727800	     -6.79573742	     -6.64675585	    -17.69161987	      8.68441764	     21.01812724	     86.51662706	      0.00000000	      0.00000000	      3.54415553	    -21.93778976	      6.28558091	     49.64414542	     86.51662706	      0.00000000	      0.00000000
